<svg width="180" height="180" viewBox="0 0 180 180" fill="none" xmlns="http://www.w3.org/2000/svg">
  <defs>
    <linearGradient id="bg" x1="28" y1="20" x2="152" y2="160" gradientUnits="userSpaceOnUse">
      <stop stop-color="#E31C5F" />
      <stop offset="1" stop-color="#FF385C" />
    </linearGradient>
  </defs>

  <rect width="180" height="180" rx="40" fill="url(#bg)" />

  <g transform="translate(45 45) scale(3.75)">
    <path
      d="M4 10.5L12 4l8 6.5V20a2 2 0 0 1-2 2H6a2 2 0 0 1-2-2V10.5Z"
      stroke="#FFFFFF"
      stroke-width="2.2"
      stroke-linejoin="round"
    />

    <circle cx="9" cy="13" r="1.25" fill="#FFFFFF" />
    <circle cx="11" cy="11.8" r="1.25" fill="#FFFFFF" />
    <circle cx="13" cy="11.8" r="1.25" fill="#FFFFFF" />
    <circle cx="15" cy="13" r="1.25" fill="#FFFFFF" />
    <path
      d="M12 14.5c-2.2 0-4 1.4-4 3.2 0 1.4 1.4 2.4 4 2.4s4-1 4-2.4c0-1.8-1.8-3.2-4-3.2Z"
      fill="#FFFFFF"
    />
  </g>
</svg>
