<svg width="1200" height="630" viewBox="0 0 1200 630" fill="none" xmlns="http://www.w3.org/2000/svg">
  <defs>
    <linearGradient id="bg" x1="0" y1="0" x2="1200" y2="630" gradientUnits="userSpaceOnUse">
      <stop stop-color="#FFFFFF" />
      <stop offset="1" stop-color="#FFF1F2" />
    </linearGradient>
    <linearGradient id="mark" x1="0" y1="0" x2="1" y2="1">
      <stop stop-color="#E31C5F" />
      <stop offset="1" stop-color="#FF385C" />
    </linearGradient>
    <filter id="shadow" x="-50%" y="-50%" width="200%" height="200%" color-interpolation-filters="sRGB">
      <feDropShadow dx="0" dy="18" stdDeviation="18" flood-color="#000000" flood-opacity="0.12" />
    </filter>
  </defs>

  <rect width="1200" height="630" fill="url(#bg)" />
  <circle cx="1060" cy="120" r="260" fill="#E31C5F" opacity="0.10" />
  <circle cx="180" cy="560" r="220" fill="#FF385C" opacity="0.08" />

  <g transform="translate(96 156)">
    <g filter="url(#shadow)">
      <rect width="120" height="120" rx="28" fill="url(#mark)" />
      <g transform="translate(30 30) scale(2.5)">
        <path
          d="M4 10.5L12 4l8 6.5V20a2 2 0 0 1-2 2H6a2 2 0 0 1-2-2V10.5Z"
          stroke="#FFFFFF"
          stroke-width="2.2"
          stroke-linejoin="round"
        />
        <circle cx="9" cy="13" r="1.25" fill="#FFFFFF" />
        <circle cx="11" cy="11.8" r="1.25" fill="#FFFFFF" />
        <circle cx="13" cy="11.8" r="1.25" fill="#FFFFFF" />
        <circle cx="15" cy="13" r="1.25" fill="#FFFFFF" />
        <path
          d="M12 14.5c-2.2 0-4 1.4-4 3.2 0 1.4 1.4 2.4 4 2.4s4-1 4-2.4c0-1.8-1.8-3.2-4-3.2Z"
          fill="#FFFFFF"
        />
      </g>
    </g>

    <g transform="translate(152 8)">
      <text
        x="0"
        y="70"
        font-family="ui-sans-serif, system-ui, -apple-system, Segoe UI, Roboto, Helvetica, Arial"
        font-size="72"
        font-weight="800"
        fill="#0F172A"
        letter-spacing="-1.5"
      >
        SitSwap
      </text>
      <text
        x="0"
        y="122"
        font-family="ui-sans-serif, system-ui, -apple-system, Segoe UI, Roboto, Helvetica, Arial"
        font-size="28"
        font-weight="600"
        fill="#334155"
      >
        Pet &amp; Home Care Exchange
      </text>
      <text
        x="0"
        y="172"
        font-family="ui-sans-serif, system-ui, -apple-system, Segoe UI, Roboto, Helvetica, Arial"
        font-size="22"
        font-weight="500"
        fill="#475569"
      >
        Trusted stays for pet care and agreed household chores.
      </text>
    </g>
  </g>
</svg>

