<svg width="1280" height="720" viewBox="0 0 1280 720" fill="none" xmlns="http://www.w3.org/2000/svg">
  <defs>
    <linearGradient id="bg" x1="0" y1="0" x2="1280" y2="720" gradientUnits="userSpaceOnUse">
      <stop stop-color="#FFFFFF" />
      <stop offset="1" stop-color="#FFF1F2" />
    </linearGradient>
    <linearGradient id="mark" x1="0" y1="0" x2="1" y2="1">
      <stop stop-color="#E31C5F" />
      <stop offset="1" stop-color="#FF385C" />
    </linearGradient>
  </defs>

  <rect width="1280" height="720" fill="url(#bg)" />
  <circle cx="1120" cy="140" r="280" fill="#E31C5F" opacity="0.10" />
  <circle cx="180" cy="620" r="240" fill="#FF385C" opacity="0.08" />

  <g transform="translate(96 120)">
    <rect width="1088" height="480" rx="32" fill="#0B1220" opacity="0.04" />
    <rect x="40" y="40" width="1008" height="400" rx="28" fill="#FFFFFF" />
    <rect x="40" y="40" width="1008" height="72" rx="28" fill="#FFFFFF" />
    <rect x="40" y="40" width="1008" height="72" rx="28" fill="#0F172A" opacity="0.02" />

    <g transform="translate(72 64)">
      <rect width="56" height="56" rx="14" fill="url(#mark)" />
      <g transform="translate(14 14) scale(1.2)">
        <path
          d="M4 10.5L12 4l8 6.5V20a2 2 0 0 1-2 2H6a2 2 0 0 1-2-2V10.5Z"
          stroke="#FFFFFF"
          stroke-width="2.2"
          stroke-linejoin="round"
        />
        <circle cx="9" cy="13" r="1.25" fill="#FFFFFF" />
        <circle cx="11" cy="11.8" r="1.25" fill="#FFFFFF" />
        <circle cx="13" cy="11.8" r="1.25" fill="#FFFFFF" />
        <circle cx="15" cy="13" r="1.25" fill="#FFFFFF" />
        <path
          d="M12 14.5c-2.2 0-4 1.4-4 3.2 0 1.4 1.4 2.4 4 2.4s4-1 4-2.4c0-1.8-1.8-3.2-4-3.2Z"
          fill="#FFFFFF"
        />
      </g>
      <text
        x="72"
        y="40"
        font-family="ui-sans-serif, system-ui, -apple-system, Segoe UI, Roboto, Helvetica, Arial"
        font-size="34"
        font-weight="800"
        fill="#0F172A"
        letter-spacing="-0.8"
      >
        SitSwap
      </text>
    </g>

    <g transform="translate(96 180)">
      <text
        x="0"
        y="64"
        font-family="ui-sans-serif, system-ui, -apple-system, Segoe UI, Roboto, Helvetica, Arial"
        font-size="54"
        font-weight="800"
        fill="#0F172A"
        letter-spacing="-1.2"
      >
        Pet &amp; Home Care Exchange
      </text>
      <text
        x="0"
        y="112"
        font-family="ui-sans-serif, system-ui, -apple-system, Segoe UI, Roboto, Helvetica, Arial"
        font-size="22"
        font-weight="500"
        fill="#475569"
      >
        Find trusted sitters. Offer care. Enjoy free stays.
      </text>

      <rect x="0" y="152" width="240" height="52" rx="14" fill="url(#mark)" />
      <text
        x="24"
        y="188"
        font-family="ui-sans-serif, system-ui, -apple-system, Segoe UI, Roboto, Helvetica, Arial"
        font-size="20"
        font-weight="700"
        fill="#FFFFFF"
      >
        Get started
      </text>
    </g>
  </g>
</svg>

